<svg xmlns="http://www.w3.org/2000/svg" version="1.1" xmlns:xlink="http://www.w3.org/1999/xlink" width="128" height="128" x="0" y="0" viewBox="0 0 512 512" style="enable-background:new 0 0 512 512" xml:space="preserve" class=""><g><path d="M196.072 51.892c0-6.177 5.039-11.216 11.216-11.216 6.178 0 11.216 5.039 11.216 11.216 0 6.178-5.039 11.216-11.216 11.216s-11.216-5.038-11.216-11.216zM504 201.514v262.98c0 21.087-17.156 38.242-38.243 38.242H46.243C25.156 502.736 8 485.581 8 464.494v-262.98c0-21.087 17.156-38.243 38.243-38.243h135.545v-77.22c-10.668-7.991-17.129-20.689-17.129-34.158 0-23.506 19.123-42.629 42.629-42.629s42.63 19.123 42.63 42.629c0 13.47-6.462 26.167-17.13 34.158v77.22h38.474l44.104-72.909a8 8 0 0 1 14.845 4.141v68.769h135.546c21.087-.001 38.243 17.155 38.243 38.242zm-18.538-10.3L315.439 340.981l169.504 134.746A22.1 22.1 0 0 0 488 464.495v-262.98c0-3.717-.92-7.219-2.538-10.301zm-208.597-6.293h10.346a8 8 0 0 1 8 8v10.933c0 18.88-13.414 34.685-31.211 38.389v19.259c28.324-3.912 50.211-28.265 50.211-57.648v-80.67zM197.788 81.778v81.492h19V81.778a7.998 7.998 0 0 1 3.951-6.899c8.129-4.771 13.179-13.578 13.179-22.986 0-14.684-11.946-26.629-26.63-26.629s-26.629 11.945-26.629 26.629c0 9.408 5.05 18.216 13.178 22.986a8 8 0 0 1 3.951 6.899zM46.243 179.271c-2.651 0-5.195.468-7.556 1.323L256 372.017l217.312-191.423a22.14 22.14 0 0 0-7.556-1.323H330.211v24.583c0 38.217-29.041 69.77-66.211 73.773v2.813a8 8 0 0 1-16 0v-55.75a8 8 0 0 1 16 0v.953c8.869-3.267 15.211-11.802 15.211-21.79v-2.933h-16.535a8 8 0 0 1-6.845-12.14l5.752-9.51H46.243zm150.318 161.71L26.538 191.214a22.095 22.095 0 0 0-2.538 10.3v262.98c0 4.096 1.118 7.933 3.057 11.232zm269.196 145.755c2.154 0 4.235-.314 6.206-.888L303.242 351.725l-41.954 36.955c-1.512 1.331-3.399 1.997-5.288 1.997s-3.776-.666-5.288-1.997l-41.954-36.955L40.037 485.849c1.971.574 4.052.888 6.206.888h419.514z" fill="#000000" opacity="1" data-original="#000000" class=""></path></g></svg>